<mxfile host="app.diagrams.net" agent="Mozilla/5.0 (Windows NT 10.0; Win64; x64) AppleWebKit/537.36 (KHTML, like Gecko) Chrome/116.0.5845.97 Safari/537.36 Core/1.116.485.400 QQBrowser/13.6.6321.400" version="26.2.8">
  <diagram name="第 1 页" id="2pf86PvcZ0VI5GpcgYND">
    <mxGraphModel dx="1428" dy="766" grid="1" gridSize="10" guides="1" tooltips="1" connect="1" arrows="1" fold="1" page="1" pageScale="1" pageWidth="827" pageHeight="1169" math="0" shadow="0">
      <root>
        <mxCell id="0" />
        <mxCell id="1" parent="0" />
        <mxCell id="U3VlFOeN2APtLFcvvIJK-1" value="" style="shape=cylinder3;whiteSpace=wrap;html=1;boundedLbl=1;backgroundOutline=1;size=15;" vertex="1" parent="1">
          <mxGeometry x="650" y="310" width="60" height="80" as="geometry" />
        </mxCell>
        <mxCell id="U3VlFOeN2APtLFcvvIJK-2" value="tbl_wdt_goods_virtual_inventory" style="text;html=1;align=center;verticalAlign=middle;whiteSpace=wrap;rounded=0;" vertex="1" parent="1">
          <mxGeometry x="650" y="390" width="60" height="30" as="geometry" />
        </mxCell>
        <mxCell id="U3VlFOeN2APtLFcvvIJK-4" style="edgeStyle=orthogonalEdgeStyle;rounded=0;orthogonalLoop=1;jettySize=auto;html=1;entryX=0;entryY=0.5;entryDx=0;entryDy=0;" edge="1" parent="1" source="U3VlFOeN2APtLFcvvIJK-3" target="U3VlFOeN2APtLFcvvIJK-5">
          <mxGeometry relative="1" as="geometry">
            <mxPoint x="320" y="350" as="targetPoint" />
          </mxGeometry>
        </mxCell>
        <mxCell id="U3VlFOeN2APtLFcvvIJK-10" value="定时抓取：设置-策略设置-虚拟仓策略-虚拟仓库存" style="edgeLabel;html=1;align=center;verticalAlign=middle;resizable=0;points=[];" vertex="1" connectable="0" parent="U3VlFOeN2APtLFcvvIJK-4">
          <mxGeometry x="0.1717" y="-1" relative="1" as="geometry">
            <mxPoint x="-27" y="-10" as="offset" />
          </mxGeometry>
        </mxCell>
        <mxCell id="U3VlFOeN2APtLFcvvIJK-13" style="edgeStyle=orthogonalEdgeStyle;rounded=0;orthogonalLoop=1;jettySize=auto;html=1;entryX=0.5;entryY=0;entryDx=0;entryDy=0;exitX=0.5;exitY=0;exitDx=0;exitDy=0;" edge="1" parent="1" source="U3VlFOeN2APtLFcvvIJK-3" target="U3VlFOeN2APtLFcvvIJK-5">
          <mxGeometry relative="1" as="geometry">
            <mxPoint x="80" y="325" as="sourcePoint" />
            <mxPoint x="334" y="300" as="targetPoint" />
            <Array as="points">
              <mxPoint x="76" y="280" />
              <mxPoint x="505" y="280" />
            </Array>
          </mxGeometry>
        </mxCell>
        <mxCell id="U3VlFOeN2APtLFcvvIJK-14" value="定时抓取：仓储--库存信息--库存管理" style="edgeLabel;html=1;align=center;verticalAlign=middle;resizable=0;points=[];" vertex="1" connectable="0" parent="U3VlFOeN2APtLFcvvIJK-13">
          <mxGeometry x="-0.1676" y="2" relative="1" as="geometry">
            <mxPoint y="-7" as="offset" />
          </mxGeometry>
        </mxCell>
        <mxCell id="U3VlFOeN2APtLFcvvIJK-3" value="旺店通" style="rounded=1;whiteSpace=wrap;html=1;" vertex="1" parent="1">
          <mxGeometry x="26" y="325" width="100" height="50" as="geometry" />
        </mxCell>
        <mxCell id="U3VlFOeN2APtLFcvvIJK-6" style="edgeStyle=orthogonalEdgeStyle;rounded=0;orthogonalLoop=1;jettySize=auto;html=1;" edge="1" parent="1" source="U3VlFOeN2APtLFcvvIJK-5" target="U3VlFOeN2APtLFcvvIJK-1">
          <mxGeometry relative="1" as="geometry" />
        </mxCell>
        <mxCell id="U3VlFOeN2APtLFcvvIJK-5" value="logisticstrajectoryadmin" style="rounded=1;whiteSpace=wrap;html=1;" vertex="1" parent="1">
          <mxGeometry x="430" y="325" width="150" height="50" as="geometry" />
        </mxCell>
      </root>
    </mxGraphModel>
  </diagram>
</mxfile>
